<?xml version="1.0" standalone="no"?>
<!DOCTYPE svg PUBLIC "-//W3C//DTD SVG 20010904//EN"
 "http://www.w3.org/TR/2001/REC-SVG-20010904/DTD/svg10.dtd">
<svg version="1.0" xmlns="http://www.w3.org/2000/svg"
 width="500.000000pt" height="500.000000pt" viewBox="0 0 500.000000 500.000000"
 preserveAspectRatio="xMidYMid meet">
<metadata>
Created by potrace 1.14, written by Peter Selinger 2001-2017
</metadata>
<g transform="translate(0.000000,500.000000) scale(0.100000,-0.100000)"
fill="#000000" stroke="none">
<path d="M0 2500 l0 -2500 2500 0 2500 0 0 2500 0 2500 -2500 0 -2500 0 0
-2500z m2502 1338 l-5 -73 73 68 c40 37 79 67 88 67 13 0 -7 -20 -103 -103
l-30 -25 30 -34 c16 -18 48 -52 70 -76 33 -35 37 -44 25 -52 -23 -15 -31 -9
-90 68 -60 79 -68 78 -69 -10 -1 -43 -3 -48 -23 -48 -23 0 -23 1 -17 102 4 57
7 122 8 146 1 37 4 42 25 42 23 0 23 -1 18 -72z m-142 47 c0 -13 -7 -15 -33
-10 -80 15 -146 -54 -133 -138 18 -109 102 -153 198 -103 15 8 30 11 33 6 9
-14 -78 -42 -133 -43 -62 0 -98 21 -124 74 -41 79 -11 165 72 207 52 26 120
30 120 7z m491 -36 c68 -23 87 -34 76 -46 -4 -3 -29 4 -56 17 -27 12 -56 20
-63 17 -17 -6 -43 -86 -31 -97 4 -4 26 -13 48 -20 22 -7 34 -15 28 -17 -7 -3
-29 1 -49 7 -20 7 -39 8 -44 4 -6 -7 -40 -100 -40 -110 0 -2 27 -8 60 -15 58
-11 79 -23 66 -36 -7 -8 -155 37 -162 49 -8 13 79 268 91 268 6 0 40 -10 76
-21z m-738 -203 c64 -50 85 -71 75 -77 -21 -14 -35 -11 -65 15 l-28 24 -59
-30 -58 -30 5 -43 c3 -35 0 -48 -14 -61 -17 -16 -27 -16 -104 -4 -115 18 -126
7 -62 -58 43 -44 46 -50 32 -62 -14 -12 -29 -1 -118 89 l-102 102 53 50 c45
41 59 49 92 49 31 0 43 -5 56 -26 15 -22 16 -31 5 -61 -7 -19 -11 -36 -9 -38
1 -2 36 -7 77 -11 l74 -7 -7 104 c-4 57 -10 129 -13 159 l-6 55 44 -36 c24
-19 84 -66 132 -103z m1010 70 c46 -19 92 -65 79 -78 -7 -7 -20 0 -42 25 -56
64 -128 57 -185 -18 -57 -74 -36 -158 50 -196 49 -22 55 -29 27 -29 -32 0
-112 61 -132 101 -24 45 -25 80 -6 117 16 30 63 77 86 85 28 10 91 7 123 -7z
m168 -191 c-17 -15 -40 -35 -51 -44 -19 -16 -19 -17 24 -66 l43 -49 47 38 c43
35 76 42 76 17 0 -10 -210 -191 -221 -191 -4 0 -10 7 -13 16 -5 12 9 31 45 63
l52 46 -39 47 c-22 26 -42 47 -46 47 -4 1 -28 -17 -53 -39 -51 -44 -57 -46
-73 -27 -9 10 14 34 100 106 98 81 113 90 126 77 13 -13 11 -18 -17 -41z
m-1616 -165 c81 -39 97 -118 44 -223 -17 -34 -32 -63 -33 -64 -2 -2 -56 26
-122 62 -65 36 -123 66 -128 68 -11 4 26 76 61 117 50 60 109 73 178 40z m639
-292 c25 -18 80 -64 121 -102 l75 -68 87 12 c120 16 118 14 92 49 -43 58 8 71
62 15 33 -34 36 -36 86 -30 80 9 87 14 68 42 -39 60 -2 72 58 18 l40 -36 66 7
c97 12 111 10 139 -19 14 -14 24 -27 21 -29 -2 -2 -103 -38 -224 -80 -233 -82
-265 -100 -265 -155 0 -39 34 -88 133 -192 l88 -92 81 11 c113 15 129 14 161
-12 l29 -22 -89 -49 c-48 -27 -89 -50 -91 -52 -2 -1 2 -12 8 -24 11 -20 10
-21 -11 -9 -13 6 -24 8 -26 3 -2 -5 -25 -47 -52 -92 l-48 -84 -22 36 c-21 34
-22 39 -10 136 l12 101 -99 100 c-105 107 -143 134 -174 124 -49 -16 -109
-123 -190 -342 -29 -79 -57 -143 -61 -143 -4 0 -17 12 -29 28 -20 25 -21 34
-15 112 6 83 5 86 -20 110 -40 38 -48 56 -29 74 14 15 18 14 43 -4 l28 -19 11
67 11 67 -39 36 c-44 40 -47 50 -25 69 12 10 20 9 41 -5 14 -9 27 -15 29 -13
6 6 25 131 25 167 0 29 -12 46 -80 117 -111 116 -137 163 -108 192 19 19 43
14 92 -20z m-634 -15 c-1 -21 -22 -36 -56 -42 -38 -6 -38 -7 -51 -71 -13 -60
-12 -66 4 -77 46 -31 57 -42 51 -48 -4 -4 -66 35 -139 86 -80 56 -127 95 -118
98 34 11 257 59 282 60 15 0 27 -2 27 -6z m-89 -268 c35 -19 49 -50 49 -108 0
-81 -32 -100 -191 -111 -76 -6 -87 -5 -93 10 -9 24 10 34 69 35 100 2 167 15
182 35 22 30 13 93 -18 116 -24 18 -34 19 -135 9 -60 -5 -111 -8 -113 -5 -10
10 12 16 90 23 125 12 128 12 160 -4z m147 -254 c11 -7 10 -16 -7 -49 -15 -30
-19 -52 -15 -88 7 -65 -19 -108 -83 -136 -62 -27 -123 -21 -165 18 -84 80 -73
190 25 234 68 31 138 22 176 -24 20 -24 28 -20 35 19 7 37 12 40 34 26z m2032
-440 c0 -12 -20 -25 -27 -18 -7 7 6 27 18 27 5 0 9 -4 9 -9z m-41 -91 c-6 -16
-17 -30 -25 -30 -17 0 -17 2 -2 35 17 37 40 34 27 -5z m-56 -100 c-10 -17 -21
-26 -26 -21 -11 11 13 51 31 51 10 0 9 -7 -5 -30z m-43 -67 c-1 -14 -40 -56
-47 -49 -10 9 18 56 34 56 7 0 13 -3 13 -7z m-88 -115 c-28 -28 -40 -16 -17
18 12 19 20 23 28 15 8 -8 5 -17 -11 -33z m-71 -70 c-13 -10 -27 -18 -32 -18
-16 0 -9 19 13 34 30 21 47 7 19 -16z m-900 -51 c-11 -11 -63 21 -55 34 3 5
19 2 35 -8 16 -10 25 -21 20 -26z m829 5 c0 -4 -13 -16 -30 -25 -35 -21 -41
-7 -7 16 25 18 37 21 37 9z m-755 -24 c14 -6 25 -17 25 -25 0 -11 -6 -11 -30
2 -16 9 -30 20 -30 25 0 13 4 13 35 -2z m655 -36 c0 -8 -43 -32 -55 -32 -15 0
-1 22 18 30 29 11 37 12 37 2z m-552 -8 c12 -4 22 -12 22 -20 0 -10 -6 -11
-30 -3 -16 6 -30 15 -30 20 0 10 7 11 38 3z m110 -30 c27 -8 29 -24 3 -24 -28
0 -52 11 -45 21 6 11 11 11 42 3z m342 -3 c0 -11 -50 -24 -58 -16 -8 8 19 25
41 25 9 0 17 -4 17 -9z m-212 -22 c-2 -6 -7 -10 -11 -10 -4 1 -18 1 -32 1 -14
0 -25 5 -25 10 0 6 16 10 36 10 21 0 34 -4 32 -11z m112 1 c0 -5 -9 -11 -20
-11 -11 -1 -25 -2 -32 -3 -6 -1 -13 5 -15 12 -3 8 7 12 31 12 20 0 36 -4 36
-10z"/>
<path d="M1966 3648 c4 -35 10 -67 14 -71 8 -9 90 32 90 44 0 7 -96 89 -104
89 -3 0 -3 -28 0 -62z"/>
<path d="M1692 3557 c-12 -13 -22 -28 -22 -33 0 -6 17 -27 38 -47 36 -35 39
-37 54 -20 36 42 41 64 21 92 -27 35 -63 38 -91 8z"/>
<path d="M1532 3325 c-22 -10 -38 -27 -48 -51 -8 -20 -14 -37 -12 -39 2 -1 50
-28 106 -59 114 -62 122 -62 142 0 22 65 -7 117 -82 149 -45 18 -63 18 -106 0z"/>
<path d="M1493 2986 c-28 -6 -54 -14 -57 -17 -5 -5 96 -79 108 -79 2 0 6 18
10 39 3 22 9 46 12 55 7 18 1 19 -73 2z"/>
<path d="M1524 2471 c-58 -27 -84 -58 -84 -101 0 -78 81 -109 173 -67 64 29
92 70 82 118 -14 64 -90 87 -171 50z"/>
</g>
</svg>
